<svg width="16.000000" height="16.000000" viewBox="0 0 16 16" fill="none" xmlns="http://www.w3.org/2000/svg" xmlns:xlink="http://www.w3.org/1999/xlink">
	<desc>
			Created with Pixso.
	</desc>
	<g id="箭头 上">
		<g clip-path="url(#clip34_1)">
			<g id="path">
				<path d="M14.2222 12.4445C13.9555 12.4445 13.6889 12.3556 13.5111 12.1778L8.62219 6.40002C8.44443 6.3111 8.35553 6.22223 8.08887 6.22223C7.99997 6.22223 7.73331 6.3111 7.64444 6.40002L2.48886 12.0889C2.1333 12.4445 1.59998 12.4445 1.24442 12.1778C0.888885 11.8223 0.888885 11.2889 1.15555 10.9333L6.3111 5.24445C6.75552 4.71112 7.46664 4.44446 8.17776 4.44446C8.88885 4.44446 9.51108 4.79999 10.0444 5.33337L14.9333 11.0222C15.2889 11.3778 15.2 11.9111 14.8444 12.2667C14.6667 12.3556 14.4 12.4445 14.2222 12.4445Z" fill-rule="nonzero" fill="#999999"/>
			</g>
		</g>
	</g>
	<defs>
		<clipPath id="clip34_1">
			<rect width="16.000000" height="16.000000" fill="white"/>
		</clipPath>
	</defs>
</svg>
