<svg width="32.000000" height="32.000000" viewBox="0 0 32 32" fill="none" xmlns="http://www.w3.org/2000/svg"
  xmlns:xlink="http://www.w3.org/1999/xlink">
  <desc>
    Created with Pixso.
  </desc>
  <g id="clear">
    <g clip-path="url(#clip28_7)">
      <g id="path">
        <path
          d="M15.9999 30.6667C24.0999 30.6667 30.6666 24.1001 30.6666 16C30.6666 7.90002 24.0999 1.33337 15.9999 1.33337C7.89992 1.33337 1.33325 7.90002 1.33325 16C1.33325 24.1001 7.89992 30.6667 15.9999 30.6667ZM22.7133 22.484C22.3297 22.8809 21.862 23.0841 21.3101 23.0938C20.7583 23.1034 20.2838 22.9166 19.8866 22.5333L16.0493 18.828L12.3439 22.6641C11.9603 23.0613 11.4923 23.2648 10.9401 23.2744C10.3879 23.2841 9.91319 23.097 9.51591 22.7134C9.11864 22.3297 8.91519 21.8618 8.90555 21.3096C8.89592 20.7574 9.08293 20.2826 9.46658 19.8854L13.1719 16.0493L9.33325 12.344C8.93597 11.9602 8.73259 11.4921 8.72308 10.9398C8.71358 10.3875 8.90074 9.9126 9.28459 9.51538C9.66843 9.11804 10.1365 8.91467 10.6888 8.90515C11.2412 8.89575 11.716 9.08289 12.1133 9.46667L15.9506 13.172L19.6546 9.33606C20.0383 8.93884 20.5062 8.73535 21.0584 8.72571C21.6106 8.71606 22.0854 8.90295 22.4828 9.2865C22.8801 9.67004 23.0837 10.1379 23.0936 10.6902C23.1035 11.2423 22.9167 11.7172 22.5332 12.1147L18.8266 15.9507L22.6639 19.656C23.0607 20.0397 23.264 20.5073 23.2736 21.0592C23.2832 21.611 23.0965 22.0868 22.7133 22.484Z"
          fill-rule="nonzero" fill="#000000" />
      </g>
    </g>
  </g>
  <defs>
    <clipPath id="clip28_7">
      <rect width="32.000000" height="32.000000" fill="white" />
    </clipPath>
  </defs>
</svg>