<svg width="30.000000" height="30.000000" viewBox="0 0 30 30" fill="none">
  <g clipPath="url(#clip9_8)">
    <path
      d="M15 3.75C8.8125 3.75 3.75 8.8125 3.75 15C3.75 21.1875 8.8125 26.25 15 26.25C21.1875 26.25 26.25 21.1875 26.25 15C26.25 8.8125 21.1875 3.75 15 3.75L15 3.75M15 24.375C9.75 24.375 5.625 20.25 5.625 15C5.625 9.75 9.75 5.625 15 5.625C20.25 5.625 24.375 9.75 24.375 15C24.375 20.25 20.25 24.375 15 24.375L15 24.375M19.6875 10.3125C19.3125 9.9375 18.75 9.9375 18.375 10.3125L15 13.6875L11.625 10.3125C11.25 9.9375 10.6875 9.9375 10.3125 10.3125C9.9375 10.6875 9.9375 11.25 10.3125 11.625L13.6875 15L10.3125 18.375C9.9375 18.75 9.9375 19.3125 10.3125 19.6875C10.6875 20.0625 11.25 20.0625 11.625 19.6875L15 16.3125L18.375 19.6875C18.75 20.0625 19.3125 20.0625 19.6875 19.6875C20.0625 19.3125 20.0625 18.75 19.6875 18.375L16.3125 15L19.6875 11.625C20.0625 11.25 20.0625 10.6875 19.6875 10.3125L19.6875 10.3125Z"
      fillRule="evenodd" />
  </g>
  <defs>
    <clipPath id="clip9_8">
      <rect width="30.000000" height="30.000000" fill="white" />
    </clipPath>
  </defs>
</svg>