<svg width="40.000000" height="40.000000" viewBox="0 0 40 40" fill="none" xmlns="http://www.w3.org/2000/svg" xmlns:xlink="http://www.w3.org/1999/xlink">
	<desc>
			Created with Pixso.
	</desc>
	<g id="云盘">
		<g clip-path="url(#clip18_19)">
			<g id="path">
				<path d="M10 30L28.3334 30C29.2366 29.9994 30.1039 29.8225 30.9353 29.4694C31.7666 29.1161 32.496 28.6147 33.1235 27.9651C33.7511 27.3155 34.2269 26.5692 34.5511 25.7261C34.8754 24.883 35.0221 24.0101 34.9915 23.1074C34.9608 22.2047 34.7552 21.3438 34.3748 20.5246C33.9941 19.7054 33.4689 18.993 32.7987 18.3874C32.1287 17.7817 31.3669 17.3309 30.5135 17.0349C29.6602 16.7389 28.783 16.6212 27.8817 16.6817L26.6184 16.765L26.1984 15.5717C25.5231 13.6578 24.3107 12.1868 22.561 11.1583C20.8114 10.13 18.9362 9.78638 16.9355 10.1274C14.9349 10.4685 13.2797 11.4141 11.9696 12.9641C10.6595 14.5141 10.0031 16.3039 10 18.3334L10.0017 18.5084L10.0283 19.8284L8.75 20.1567C7.53467 20.475 6.57532 21.1548 5.87195 22.1959C5.1687 23.2369 4.89612 24.3807 5.05444 25.627C5.21265 26.8734 5.76245 27.9127 6.70361 28.7449C7.6449 29.5772 8.74365 29.9955 10 30ZM38.3334 23.3334C38.3334 24.6594 38.0796 25.9351 37.5721 27.1602C37.0647 28.3853 36.3422 29.4667 35.4044 30.4044C34.4668 31.3421 33.3854 32.0647 32.1602 32.5721C30.9351 33.0796 29.6594 33.3334 28.3334 33.3334L10 33.3334C8.02148 33.3348 6.26514 32.7108 4.73108 31.4613C3.19702 30.2117 2.23059 28.618 1.83167 26.6801C1.43274 24.7422 1.69128 22.8963 2.60706 21.1425C3.52295 19.3887 4.89014 18.1218 6.70837 17.3417C6.81714 16.0633 7.12817 14.8363 7.64172 13.6605C8.15527 12.4849 8.84399 11.4227 9.70789 10.4742C10.5719 9.52563 11.5652 8.74109 12.688 8.12024C13.8108 7.49951 15.0035 7.07544 16.2662 6.84814C17.5289 6.62085 18.7947 6.60229 20.0635 6.7926C21.3323 6.98291 22.5369 7.37195 23.6774 7.95959C24.8177 8.54724 25.8336 9.30261 26.725 10.2255C27.6162 11.1483 28.3357 12.1898 28.8834 13.35C30.16 13.4205 31.3783 13.7246 32.5382 14.2621C33.6982 14.7997 34.7175 15.5327 35.5964 16.4611C36.4752 17.3895 37.151 18.4474 37.624 19.6349C38.0969 20.8224 38.3334 22.0552 38.3334 23.3334Z" fill-rule="evenodd" fill="#BCBCBC"/>
			</g>
		</g>
	</g>
	<defs>
		<clipPath id="clip18_19">
			<rect width="40.000000" height="39.999996" fill="white"/>
		</clipPath>
	</defs>
</svg>
