<svg width="32.000000" height="32.000000" viewBox="0 0 32 32" fill="none" xmlns="http://www.w3.org/2000/svg" xmlns:xlink="http://www.w3.org/1999/xlink">
	<desc>
			Created with Pixso.
	</desc>
	<g id="垃圾箱">
		<g clip-path="url(#clip29_11)">
			<g id="path">
				<path d="M30.8611 10.2783L26.9092 10.2783L26.9092 27.09C26.9092 29.5939 24.9138 31.6302 22.4608 31.6302L9.51282 31.6302C7.05853 31.6302 5.06439 29.5939 5.06439 27.09L5.06439 10.2783L1.11121 10.2783C0.496399 10.2783 0 9.771 0 9.14294C0 8.51611 0.496399 8.00879 1.11121 8.00879L10.0503 8.00879L10.0503 3.42145C10.0503 1.54449 11.5468 0.0178223 13.3864 0.0178223L18.5872 0.0178223C20.4268 0.0178223 21.9233 1.54449 21.9233 3.42145L21.9233 8.00879L30.8611 8.00879C31.476 8.00879 31.9736 8.51611 31.9736 9.14294C31.9736 9.771 31.476 10.2783 30.8611 10.2783ZM19.6996 3.42145C19.6996 2.79584 19.2008 2.28735 18.5872 2.28735L13.3864 2.28735C12.7728 2.28735 12.2751 2.79584 12.2751 3.42145L12.2751 8.00879L19.6996 8.00879L19.6996 3.42145ZM24.6843 10.2783L7.28802 10.2783L7.28802 27.09C7.28802 28.3414 8.28571 29.3608 9.51282 29.3608L22.4608 29.3608C23.6867 29.3608 24.6843 28.3414 24.6843 27.09L24.6843 10.2783ZM18.766 26.7313C18.1524 26.7313 17.6548 26.224 17.6548 25.5972L17.6548 13.9573C17.6548 13.3305 18.1524 12.822 18.766 12.822C19.3808 12.822 19.8784 13.3305 19.8784 13.9573L19.8784 25.5972C19.8784 26.224 19.3808 26.7313 18.766 26.7313ZM13.2064 26.7313C12.5916 26.7313 12.0952 26.224 12.0952 25.5972L12.0952 13.9573C12.0952 13.3305 12.5916 12.822 13.2064 12.822C13.8212 12.822 14.3188 13.3305 14.3188 13.9573L14.3188 25.5972C14.3188 26.224 13.8212 26.7313 13.2064 26.7313Z" fill-rule="nonzero" fill="#272636"/>
			</g>
		</g>
	</g>
	<defs>
		<clipPath id="clip29_11">
			<rect width="32.000000" height="32.000000" fill="white"/>
		</clipPath>
	</defs>
</svg>
