<svg width="40.000000" height="40.000000" viewBox="0 0 40 40" fill="none" xmlns="http://www.w3.org/2000/svg" xmlns:xlink="http://www.w3.org/1999/xlink">
	<desc>
			Created with Pixso.
	</desc>
	<g id=" 历史">
		<g clip-path="url(#clip18_23)">
			<g id="path">
				<path d="M20 36.6666C29.205 36.6666 36.6666 29.205 36.6666 20C36.6666 10.795 29.205 3.33337 20 3.33337C10.795 3.33337 3.33337 10.795 3.33337 20C3.33337 29.205 10.795 36.6666 20 36.6666ZM20 40C8.95496 40 0 31.045 0 20C0 8.95496 8.95496 0 20 0C31.045 0 40 8.95496 40 20C40 31.045 31.045 40 20 40ZM21.6666 20.9817L21.6666 11.6616C21.6666 10.755 20.92 10 20 10C19.0734 10 18.3334 10.7433 18.3334 11.6616L18.3334 21.6716C18.3303 22.1267 18.4893 22.5156 18.8101 22.8384L23.5466 27.575C23.8717 27.8981 24.2633 28.0585 24.7216 28.0562C25.1798 28.0538 25.5698 27.8896 25.8917 27.5634C26.2147 27.2402 26.3774 26.8502 26.3796 26.3932C26.382 25.9363 26.2231 25.5447 25.9033 25.2184L21.6666 20.9817Z" fill-rule="evenodd" fill="#BCBCBC"/>
			</g>
		</g>
	</g>
	<defs>
		<clipPath id="clip18_23">
			<rect width="40.000000" height="39.999996" fill="white"/>
		</clipPath>
	</defs>
</svg>
