<svg width="16.000000" height="16.000000" viewBox="0 0 16 16" fill="none" xmlns="http://www.w3.org/2000/svg" xmlns:xlink="http://www.w3.org/1999/xlink">
	<desc>
			Created with Pixso.
	</desc>
	<g id="logout">
		<g clip-path="url(#clip32_1)">
			<g id="path">
				<path d="M13.0573 8.66663L5.66396 8.66663C5.21906 8.66705 4.99773 8.44489 4.99996 7.99994C4.99995 7.5575 5.22118 7.33527 5.66363 7.33331L13.057 7.33331L10.5286 4.80463C10.2252 4.49048 10.2279 4.17896 10.5367 3.87006C10.8456 3.56122 11.1571 3.55853 11.4713 3.86194L15.138 7.52863C15.4521 7.84283 15.4521 8.15704 15.138 8.47131L11.4713 12.1379C11.1571 12.4415 10.8456 12.4387 10.5367 12.1299C10.2278 11.821 10.2252 11.5095 10.5286 11.1953L13.0573 8.66663ZM8.66663 0.666626C9.11107 0.666626 9.3333 0.888855 9.3333 1.33331C9.3333 1.77771 9.11107 1.99994 8.66663 1.99994L2.3363 1.99994C2.14963 1.99994 1.99996 2.1496 1.99996 2.33563L1.99996 13.6643C1.99996 13.85 2.14996 13.9999 2.3363 13.9999L8.66663 13.9999C9.11107 13.9999 9.3333 14.2222 9.3333 14.6666C9.3333 15.1111 9.11107 15.3333 8.66663 15.3333L2.3363 15.3333C1.87528 15.3335 1.48175 15.1706 1.1557 14.8447C0.829651 14.5188 0.666626 14.1253 0.666626 13.6643L0.666626 2.33563C0.666443 1.87451 0.829403 1.48102 1.15551 1.15503C1.48161 0.829041 1.87521 0.66626 2.3363 0.666626L8.66663 0.666626Z" fill-rule="nonzero" fill="#000000"/>
			</g>
		</g>
	</g>
	<defs>
		<clipPath id="clip32_1">
			<rect width="16.000000" height="16.000000" fill="white"/>
		</clipPath>
	</defs>
</svg>
