<svg width="50.000000" height="50.000000" viewBox="0 0 50 50" fill="none" xmlns="http://www.w3.org/2000/svg" xmlns:xlink="http://www.w3.org/1999/xlink">
	<desc>
			Created with Pixso.
	</desc>
	<g id="播放">
		<g clip-path="url(#clip19_11)">
			<g id="path">
				<path d="M25 0C11.25 0 0 11.25 0 25C0 38.75 11.25 50 25 50C38.75 50 50 38.75 50 25C50 11.25 38.75 0 25 0ZM25 47.9167C12.3959 47.9167 2.08337 37.6042 2.08337 25C2.08337 12.3958 12.3959 2.08334 25 2.08334C37.6042 2.08334 47.9167 12.3958 47.9167 25C47.9167 37.6042 37.6042 47.9167 25 47.9167Z" fill-rule="evenodd" fill="#BCBCBC"/>
			</g>
			<g id="path">
				<path d="M32.8125 21.5625L24.4791 16.0417C21.6666 14.1667 19.2708 15.4167 19.2708 18.8542L19.2708 31.3542C19.2708 34.7917 21.5625 36.0417 24.4791 34.1667L32.8125 28.6458C35.625 26.5625 35.625 23.4375 32.8125 21.5625Z" fill-rule="evenodd" fill="#BCBCBC"/>
			</g>
		</g>
	</g>
	<defs>
		<clipPath id="clip19_11">
			<rect width="50.000000" height="50.000000" fill="white"/>
		</clipPath>
	</defs>
</svg>
