<svg width="250.000000" height="250.000000" viewBox="0 0 250 250" fill="none" xmlns="http://www.w3.org/2000/svg" xmlns:xlink="http://www.w3.org/1999/xlink">
	<desc>
			Created with Pixso.
	</desc>
	<g id="二维码">
		<g clip-path="url(#clip19_30)">
			<g id="path">
				<path d="M132.056 211.426L146.46 211.426L146.46 225.83L132.056 225.83L132.056 211.426ZM103.223 103.296L103.223 24.0234L23.9502 24.0234L23.9502 103.32L38.3545 103.32L38.3545 117.725L52.7588 117.725L52.7588 103.32L103.223 103.296ZM38.3545 88.8916L38.3545 38.4277L88.8184 38.4277L88.8184 88.8916L38.3545 88.8916ZM52.7832 52.832L74.4141 52.832L74.4141 74.4629L52.7832 74.4629L52.7832 52.832ZM146.484 24.0234L146.484 103.32L225.781 103.32L225.781 24.0234L146.484 24.0234ZM211.353 88.8916L160.889 88.8916L160.889 38.4277L211.353 38.4277L211.353 88.8916ZM175.317 52.832L196.948 52.832L196.948 74.4629L175.317 74.4629L175.317 52.832ZM52.7832 175.366L74.4141 175.366L74.4141 196.997L52.7832 196.997L52.7832 175.366ZM23.9502 117.725L38.3545 117.725L38.3545 132.129L23.9502 132.129L23.9502 117.725ZM52.7588 117.725L67.2119 117.725L67.2119 132.129L52.7832 132.129L52.7588 117.725ZM67.1875 146.533L23.9502 146.533L23.9502 225.83L103.247 225.83L103.247 146.533L81.6162 146.533L81.6162 132.129L67.2119 132.129L67.1875 146.533ZM88.8184 160.962L88.8184 211.426L38.3545 211.426L38.3545 160.962L88.8184 160.962ZM117.651 31.2256L132.056 31.2256L132.056 52.8564L117.651 52.8564L117.651 31.2256ZM117.651 67.2607L132.056 67.2607L132.056 81.665L117.651 81.665L117.651 67.2607ZM160.889 117.725L132.056 117.725L132.056 96.0938L117.651 96.0938L117.651 117.725L81.6162 117.725L81.6162 132.129L146.484 132.129L146.484 146.533L160.889 146.533L160.889 117.725ZM160.889 146.533L175.317 146.533L175.317 160.938L160.889 160.938L160.889 146.533ZM117.651 146.533L132.056 146.533L132.056 168.164L117.651 168.164L117.651 146.533ZM117.651 182.593L132.056 182.593L132.056 211.426L117.651 211.426L117.651 182.593ZM146.484 168.164L160.889 168.164L160.889 211.426L146.46 211.426L146.484 168.164ZM189.722 146.533L225.757 146.533L225.757 160.938L189.722 160.938L189.722 146.533ZM211.353 117.725L225.757 117.725L225.757 132.129L211.353 132.129L211.353 117.725ZM175.317 117.725L204.15 117.725L204.15 132.129L175.317 132.129L175.317 117.725ZM175.317 168.164L189.722 168.164L189.722 182.568L175.317 182.568L175.317 168.164ZM211.353 182.593L204.15 182.593L204.15 196.997L218.555 196.997L218.555 182.593L225.757 182.593L225.757 168.188L211.353 168.188L211.353 182.593ZM175.317 196.997L189.722 196.997L189.722 211.426L175.317 211.426L175.317 196.997ZM189.722 211.426L225.757 211.426L225.757 225.83L189.722 225.83L189.722 211.426Z" fill-rule="evenodd" fill="#000000"/>
			</g>
		</g>
	</g>
	<defs>
		<clipPath id="clip19_30">
			<rect width="250.000000" height="250.000000" fill="white"/>
		</clipPath>
	</defs>
</svg>
