<svg width="40.000000" height="40.000000" viewBox="0 0 40 40" fill="none" xmlns="http://www.w3.org/2000/svg" xmlns:xlink="http://www.w3.org/1999/xlink">
	<desc>
			Created with Pixso.
	</desc>
	<g id="音乐">
		<g clip-path="url(#clip19_4)">
			<g id="path">
				<path d="M27.4324 1.43777C17.1826 -2.66614 5.54443 2.31506 1.43933 12.5661C-2.66711 22.8184 2.31653 34.4578 12.5676 38.5617C22.8186 42.6669 34.4568 37.6844 38.562 27.4334C42.6683 17.1811 37.6835 5.54419 27.4324 1.43777ZM13.4973 36.2423C4.54224 32.6558 0.17334 22.4535 3.75867 13.4971C7.34521 4.54196 17.5488 0.171875 26.5051 3.75967C35.4603 7.34497 39.8291 17.5485 36.2439 26.5037C32.656 35.46 22.4537 39.8276 13.4973 36.2423Z" fill-rule="evenodd" fill="#BCBCBC"/>
			</g>
			<g id="path">
				<path d="M20.9316 17.6798C20.2966 17.4455 19.6698 17.4657 19.0511 17.7405C18.4325 18.0153 17.9972 18.4668 17.7452 19.0951C17.4933 19.7233 17.496 20.3505 17.7533 20.9766C18.0107 21.6027 18.45 22.0504 19.0709 22.3198C19.7059 22.5541 20.3328 22.5338 20.9514 22.2591C21.5701 21.9843 22.0054 21.5328 22.2573 20.9045C22.5093 20.2762 22.5066 19.6491 22.2491 19.023C21.9918 18.3969 21.5526 17.9492 20.9316 17.6798ZM19.5358 21.1613C18.7643 20.8504 18.5322 20.3084 18.8397 19.5355C19.1506 18.764 19.6926 18.532 20.4656 18.8395C21.1863 19.1714 21.3992 19.7057 21.1041 20.4423C20.8092 21.1789 20.2864 21.4186 19.5358 21.1613Z" fill-rule="evenodd" fill="#BCBCBC"/>
			</g>
			<g id="path">
				<path d="M22.7875 13.041C21.8627 12.6623 20.9005 12.476 19.9011 12.4819C18.9019 12.4879 17.942 12.6859 17.0217 13.0757C16.1016 13.4655 15.2916 14.0172 14.592 14.7308C13.8923 15.4445 13.3568 16.2652 12.9854 17.193C12.6139 18.1208 12.4352 19.0843 12.449 20.0836C12.4628 21.0829 12.6682 22.0411 13.0652 22.9583C13.4622 23.8754 14.0203 24.681 14.7394 25.375C15.4584 26.069 16.2833 26.5981 17.214 26.9623C18.1351 27.3228 19.0903 27.4943 20.0793 27.4767C21.0685 27.4592 22.017 27.2539 22.9248 26.861C23.8325 26.468 24.6313 25.917 25.3212 25.2079C26.0109 24.4988 26.5396 23.6851 26.9072 22.7667C27.2749 21.8484 27.4539 20.8946 27.444 19.9054C27.4342 18.9162 27.2363 17.9662 26.8505 17.0553C26.4647 16.1445 25.9199 15.3414 25.2162 14.6461C24.5126 13.9509 23.703 13.4158 22.7875 13.041ZM18.1437 24.6404C16.8635 24.1261 15.9519 23.2348 15.4088 21.9666C14.8656 20.6984 14.8496 19.4236 15.3607 18.1422C15.875 16.8623 16.7661 15.9508 18.0341 15.4077C19.3019 14.8647 20.5764 14.8484 21.8578 15.3591C23.1382 15.8735 24.0503 16.7648 24.5939 18.0332C25.1375 19.3015 25.1539 20.5767 24.6433 21.8586C24.1287 23.1389 23.2372 24.0505 21.9686 24.5934C20.7002 25.1363 19.4252 25.152 18.1437 24.6404Z" fill-rule="evenodd" fill="#BCBCBC"/>
			</g>
			<g id="path">
				<path d="M29.2832 23.7169C29.4377 23.3299 29.3215 23.0592 28.9346 22.9046C28.5476 22.7501 28.2769 22.8663 28.1223 23.2533C27.2266 25.4987 25.667 27.0945 23.4435 28.0433C23.0684 28.2104 22.9617 28.4827 23.1235 28.8602C23.2854 29.2377 23.5562 29.3482 23.9359 29.1917C26.4608 28.1061 28.2623 26.2687 29.2832 23.7169ZM33.5734 24.7616C33.1868 24.6068 32.916 24.7226 32.761 25.109C31.3536 28.6369 28.903 31.1458 25.4092 32.6358C25.0342 32.803 24.9275 33.0753 25.0894 33.4527C25.2511 33.8302 25.5219 33.9407 25.9016 33.7842C29.6897 32.157 32.3907 29.4019 33.922 25.5739C34.0757 25.1873 33.9595 24.9166 33.5734 24.7616Z" fill-rule="evenodd" fill="#BCBCBC"/>
			</g>
			<g id="path">
				<path d="M31.2528 23.8331C30.8662 23.6783 30.5955 23.7941 30.4404 24.1805C29.2909 27.0681 27.2864 29.1208 24.4271 30.3389C24.0447 30.5025 23.9375 30.7757 24.1006 31.1583C24.2635 31.5409 24.5365 31.651 24.9194 31.4886C28.0758 30.1327 30.3256 27.8349 31.6014 24.6454C31.7551 24.2588 31.6389 23.988 31.2528 23.8331ZM16.8878 11.1377C16.7234 10.7547 16.4497 10.6456 16.0668 10.8103C13.5419 11.8959 11.7428 13.7321 10.7219 16.2839C10.5555 16.6753 10.6685 16.9501 11.0632 17.1083C11.458 17.2666 11.7303 17.1467 11.8804 16.7487C12.7758 14.5041 14.3362 12.9078 16.5592 11.96C16.9429 11.7955 17.0525 11.5214 16.8878 11.1377ZM14.9196 6.54269C14.7552 6.1601 14.4816 6.05054 14.0985 6.21402C10.3104 7.84131 7.61194 10.5952 6.08069 14.4231C5.92517 14.8098 6.04065 15.0808 6.42737 15.2362C6.81409 15.3916 7.08508 15.276 7.24036 14.8892C8.64868 11.3625 11.0992 8.85394 14.5922 7.36371C14.9741 7.19882 15.0833 6.92514 14.9196 6.54269Z" fill-rule="evenodd" fill="#BCBCBC"/>
			</g>
			<g id="path">
				<path d="M15.5757 9.65933C15.9835 9.50571 16.1014 9.22864 15.9296 8.82816C15.7577 8.42767 15.4756 8.32233 15.0833 8.51215C11.9268 9.86902 9.67822 12.1651 8.40259 15.3553C8.2677 15.7325 8.38611 15.9958 8.75769 16.1453C9.12927 16.2948 9.39697 16.1869 9.56104 15.8214C10.7113 12.9347 12.717 10.8781 15.5757 9.65933Z" fill-rule="evenodd" fill="#BCBCBC"/>
			</g>
		</g>
	</g>
	<defs>
		<clipPath id="clip19_4">
			<rect width="40.000000" height="40.000000" fill="white"/>
		</clipPath>
	</defs>
</svg>
