<svg width="14.000000" height="14.000000" viewBox="0 0 14 14" fill="none">
	<g clipPath="url(#clip15_4)">
		<path
			d="M13.3636 1.11364L13.3636 4.34191C13.3636 4.6601 13.2045 4.81918 12.8864 4.81918C12.5682 4.81918 12.4091 4.6601 12.4091 4.34191L12.4091 2.26546L8.71942 5.95509C8.49457 6.18087 8.26978 6.18087 8.04492 5.95509C7.8197 5.73003 7.8197 5.50497 8.04492 5.27991L11.7339 1.59091L9.65808 1.59091C9.3399 1.5907 9.18091 1.4315 9.18115 1.11332C9.18134 0.795143 9.34052 0.636154 9.65869 0.636368L12.8864 0.636368C13.2045 0.636368 13.3636 0.795456 13.3636 1.11364ZM5.28119 8.04428L1.59088 11.7339L1.59088 9.65682C1.5907 9.33864 1.43152 9.17966 1.11328 9.17987C0.795105 9.18008 0.636169 9.33928 0.636353 9.65746L0.636353 12.8864C0.636353 13.2046 0.795471 13.3636 1.11365 13.3636L4.34253 13.3636C4.66071 13.3636 4.81982 13.2046 4.81982 12.8864C4.81982 12.5682 4.66071 12.4091 4.34253 12.4091L2.26605 12.4091L5.95636 8.71883C6.18915 8.4938 6.19098 8.26687 5.96198 8.03804C5.73291 7.80922 5.50598 7.81129 5.28119 8.04428ZM2.26605 1.59091L4.3432 1.59091C4.66144 1.59081 4.8205 1.43162 4.82031 1.11332C4.82007 0.795029 4.66083 0.636047 4.34253 0.636368L1.11365 0.636368C0.795471 0.636368 0.636353 0.795456 0.636353 1.11364L0.636353 4.34191C0.636475 4.65999 0.795532 4.81902 1.11365 4.81902C1.4317 4.81902 1.59076 4.65999 1.59088 4.34191L1.59088 2.26546L5.28119 5.95509C5.50604 6.18087 5.7309 6.18087 5.95569 5.95509C6.18091 5.73003 6.18091 5.50497 5.95569 5.27991L2.26605 1.59091ZM12.8864 9.18018C12.5682 9.18018 12.4091 9.33928 12.4091 9.65746L12.4091 11.7346L8.71942 8.04428C8.49438 7.81887 8.26923 7.81878 8.04401 8.04401C7.81879 8.26925 7.81885 8.4944 8.04425 8.71946L11.7339 12.4097L9.65808 12.4097C9.32825 12.3979 9.16351 12.557 9.1637 12.887C9.16394 13.217 9.32892 13.3759 9.65869 13.3636L12.8864 13.3636C13.2045 13.3636 13.3636 13.2046 13.3636 12.8864L13.3636 9.65746C13.3636 9.33928 13.2045 9.18018 12.8864 9.18018Z"
			fillRule="nonzero" />
	</g>
	<defs>
		<clipPath id="clip15_4">
			<rect width="13.999999" height="14.000000" fill="white" />
		</clipPath>
	</defs>
</svg>