<svg width="40.000000" height="40.000000" viewBox="0 0 40 40" fill="none" xmlns="http://www.w3.org/2000/svg" xmlns:xlink="http://www.w3.org/1999/xlink">
	<desc>
			Created with Pixso.
	</desc>
	<g id="搜索">
		<g clip-path="url(#clip18_17)">
			<g id="path">
				<path d="M35.54 32.7L27.3601 24.5399C28.0027 23.6621 28.5272 22.7185 28.9337 21.7094C29.3401 20.7001 29.616 19.6564 29.7612 18.5781C29.9064 17.4999 29.9165 16.4204 29.7915 15.3396C29.6665 14.2589 29.4103 13.2102 29.0228 12.1935C28.6353 11.1769 28.1285 10.2236 27.5024 9.33386C26.8763 8.44409 26.1503 7.64514 25.3243 6.93713C24.4983 6.22913 23.5977 5.63367 22.6227 5.15112C21.6476 4.66846 20.6281 4.31335 19.5642 4.08594C18.5002 3.8584 17.4247 3.76562 16.3375 3.80737C15.2504 3.84912 14.1851 4.02417 13.1417 4.33252C12.0984 4.64087 11.1091 5.07312 10.174 5.62915C9.23877 6.18506 8.38647 6.84778 7.61719 7.61707C6.8479 8.38635 6.18518 9.23865 5.62927 10.1738C5.07324 11.109 4.64099 12.0983 4.33264 13.1416C4.02429 14.1849 3.84924 15.2502 3.8075 16.3374C3.76575 17.4246 3.85852 18.5001 4.08606 19.5641C4.31348 20.6279 4.66858 21.6475 5.15125 22.6226C5.63379 23.5975 6.22925 24.4982 6.93726 25.3242C7.64526 26.1501 8.44421 26.8762 9.33398 27.5023C10.2238 28.1284 11.177 28.6351 12.1936 29.0227C13.2103 29.4102 14.259 29.6664 15.3397 29.7914C16.4205 29.9164 17.5 29.9062 18.5782 29.7611C19.6565 29.6158 20.7002 29.34 21.7095 28.9336C22.7186 28.5271 23.6621 28.0026 24.54 27.36L32.7001 35.5399C33.0922 35.9321 33.5656 36.1282 34.1201 36.1282C34.6746 36.1282 35.1479 35.9321 35.54 35.5399C35.9323 35.1478 36.1283 34.6746 36.1283 34.12C36.1283 33.5654 35.9323 33.092 35.54 32.7ZM16.8801 25.88C15.6866 25.88 14.5386 25.6516 13.4359 25.1948C12.3333 24.7382 11.36 24.0879 10.5161 23.2439C9.67224 22.4 9.02185 21.4268 8.56519 20.3241C8.1084 19.2214 7.88013 18.0735 7.88013 16.88C7.88013 15.6865 8.1084 14.5385 8.56519 13.4358C9.02185 12.3331 9.67224 11.3599 10.5161 10.516C11.36 9.67212 12.3333 9.02173 13.4359 8.56506C14.5386 8.10828 15.6866 7.88 16.8801 7.88C18.0736 7.88 19.2216 8.10828 20.3242 8.56506C21.4269 9.02173 22.4001 9.67212 23.244 10.516C24.0879 11.3599 24.7383 12.3331 25.1949 13.4358C25.6517 14.5385 25.8801 15.6865 25.8801 16.88C25.8801 18.0735 25.6517 19.2214 25.1949 20.3241C24.7383 21.4268 24.0879 22.4 23.244 23.2439C22.4001 24.0879 21.4269 24.7382 20.3242 25.1948C19.2216 25.6516 18.0736 25.88 16.8801 25.88Z" fill-rule="evenodd" fill="#BCBCBC"/>
			</g>
		</g>
	</g>
	<defs>
		<clipPath id="clip18_17">
			<rect width="40.000000" height="39.999996" fill="white"/>
		</clipPath>
	</defs>
</svg>
