<svg width="40.000000" height="40.000000" viewBox="0 0 40 40" fill="none" xmlns="http://www.w3.org/2000/svg" xmlns:xlink="http://www.w3.org/1999/xlink">
	<desc>
			Created with Pixso.
	</desc>
	<g id="设置">
		<g clip-path="url(#clip18_21)">
			<g id="path">
				<path d="M36.8937 21.5804L29.7704 34.4971C29.2246 35.4929 28.3839 35.9919 27.2483 35.9942L13.1025 35.9942C11.9669 35.9919 11.1262 35.4929 10.5804 34.4971L3.45703 21.5804C2.93591 20.634 2.93591 19.6876 3.45703 18.7413L10.5804 5.82458C11.1262 4.8288 11.9669 4.32971 13.1025 4.32751L27.2483 4.32751C28.3839 4.32971 29.2246 4.8288 29.7704 5.82458L36.8937 18.7413C37.4149 19.6876 37.4149 20.634 36.8937 21.5804ZM34.7067 20.3638C34.7809 20.2286 34.7809 20.0935 34.7067 19.9584L27.5958 7.04169C27.5182 6.89935 27.3983 6.82794 27.2362 6.82751L13.1145 6.82751C12.9524 6.82794 12.8326 6.89935 12.755 7.04169L5.64417 19.9584C5.56982 20.0935 5.56982 20.2286 5.64417 20.3638L12.755 33.2804C12.8326 33.4226 12.9525 33.4938 13.1145 33.4942L27.2362 33.4942C27.3982 33.4938 27.5181 33.4225 27.5958 33.2804L34.7067 20.3638ZM20.0679 26.6667C16.3859 26.6667 13.4012 23.6821 13.4012 20C13.4012 16.3179 16.3859 13.3334 20.0679 13.3334C23.7495 13.3334 26.7346 16.3179 26.7346 20C26.7346 23.6821 23.7495 26.6667 20.0679 26.6667ZM20.0679 24.1667C22.3691 24.1667 24.2346 22.3013 24.2346 20C24.2346 17.6987 22.3691 15.8334 20.0679 15.8334C17.7666 15.8334 15.9012 17.6988 15.9012 20C15.9012 22.3013 17.7666 24.1667 20.0679 24.1667Z" fill-rule="evenodd" fill="#BCBCBC"/>
			</g>
		</g>
	</g>
	<defs>
		<clipPath id="clip18_21">
			<rect width="40.000000" height="39.999996" fill="white"/>
		</clipPath>
	</defs>
</svg>
