<svg width="40.000000" height="40.000000" viewBox="0 0 40 40" fill="none" xmlns="http://www.w3.org/2000/svg"
  xmlns:xlink="http://www.w3.org/1999/xlink">
  <desc>
    Created with Pixso.
  </desc>
  <g id="头像">
    <g clip-path="url(#clip18_7)">
      <g id="path">
        <path
          d="M19.6069 21.2928C25.3839 21.2928 30.0847 16.6626 30.0844 10.9691C30.0844 5.27588 25.3839 0.645264 19.6069 0.645264C13.83 0.645264 9.12952 5.27747 9.12952 10.9691C9.12952 16.661 13.8298 21.2928 19.6069 21.2928ZM23.9246 22.287L16.0741 22.287C8.77869 22.287 2.84497 28.1296 2.84497 35.3132L2.84497 36.0865C2.84497 39.8419 8.68372 39.8419 16.0741 39.8419L23.9246 39.8419C31.0242 39.8419 37.1549 39.8419 37.1549 36.0865L37.1549 35.3132C37.1548 28.1312 31.2201 22.287 23.9246 22.287Z"
          fill-rule="evenodd" fill="#BCBCBC" />
      </g>
    </g>
  </g>
  <defs>
    <clipPath id="clip18_7">
      <rect width="40.000000" height="39.999996" fill="white" />
    </clipPath>
  </defs>
</svg>