<svg width="40.000000" height="40.000000" viewBox="0 0 40 40" fill="none" xmlns="http://www.w3.org/2000/svg" xmlns:xlink="http://www.w3.org/1999/xlink">
	<desc>
			Created with Pixso.
	</desc>
	<g id="音量+">
		<g clip-path="url(#clip19_21)">
			<g id="path">
				<path d="M27.0547 12.8246C26.4083 12.1781 25.3606 12.1781 24.7141 12.8246C24.0676 13.4711 24.0676 14.5195 24.7141 15.1652C26.0075 16.4586 26.72 18.1785 26.72 20.0074C26.72 21.8363 26.0071 23.5562 24.7141 24.8496C24.0676 25.4953 24.0676 26.5437 24.7141 27.1902C25.0375 27.5136 25.461 27.675 25.8844 27.675C26.3079 27.675 26.7313 27.5132 27.0547 27.1902C28.9735 25.2722 30.0305 22.7207 30.0305 20.0074C30.0305 17.2941 28.9735 14.7426 27.0547 12.8246Z" fill-rule="nonzero" fill="#BCBCBC"/>
			</g>
			<g id="path">
				<path d="M31.6242 7.81406C30.9778 7.16757 29.9301 7.16757 29.2836 7.81406C28.6371 8.46054 28.6371 9.50821 29.2836 10.1547C34.7156 15.5875 34.7156 24.4266 29.2836 29.8598C28.6371 30.5063 28.6371 31.5539 29.2836 32.2004C29.6071 32.5238 30.0305 32.6852 30.4539 32.6852C30.8774 32.6852 31.3008 32.5234 31.6242 32.2004C38.3481 25.4774 38.3481 14.5371 31.6242 7.81406ZM21.5215 6.13086C21.2762 6.13086 21.0246 6.18634 20.782 6.3078L10.2848 11.5562C10.0519 11.6727 9.80521 11.7309 9.54456 11.7309L4.96918 11.7309C4.05511 11.7309 3.31409 12.4719 3.31409 13.3859L3.31409 26.6281C3.31409 27.5422 4.05511 28.2832 4.96918 28.2832L9.54416 28.2832C9.80121 28.2832 10.0547 28.343 10.2844 28.4582L20.782 33.707C21.0242 33.8281 21.2766 33.884 21.5215 33.884C22.3903 33.884 23.1774 33.1859 23.1774 32.2266L23.1774 7.78827C23.1774 6.82852 22.3903 6.13086 21.5215 6.13086ZM19.8668 29.5484L11.7653 25.4977C11.0793 25.1547 10.3113 24.9734 9.54456 24.9734L6.62463 24.9734L6.62463 15.0414L9.54456 15.0414C10.3117 15.0414 11.0793 14.8602 11.7653 14.5172L19.8668 10.4664L19.8668 29.5484Z" fill-rule="nonzero" fill="#BCBCBC"/>
			</g>
		</g>
	</g>
	<defs>
		<clipPath id="clip19_21">
			<rect width="40.000000" height="40.000000" fill="white"/>
		</clipPath>
	</defs>
</svg>
