<svg class="prefix__icon" width="200" height="200" viewBox="0 0 1024 1024" xmlns="http://www.w3.org/2000/svg" fill="rgb(226 226 226)"><path d="M896 864a32 32 0 010 64H128a32 32 0 010-64zm-60.16-733.621l15.093 15.093c45.867 45.835 45.867 120.16 0 166.005L418.795 743.34a160.192 160.192 0 01-78.123 42.986l-152.245 34.198c-23.84 5.365-44.662-16.854-37.75-40.288l43.339-146.88a160.043 160.043 0 0140.373-67.926l435.328-435.05c45.867-45.835 120.246-45.835 166.112 0zM636.32 254.304L279.68 610.709a96.021 96.021 0 00-24.213 40.747l-27.947 94.656 99.093-22.261a96.117 96.117 0 0046.87-25.782l353.45-353.226-90.602-90.539zm78.699-78.656l-33.398 33.387 90.603 90.538 33.387-33.376a53.333 53.333 0 000-75.456l-15.094-15.093a53.408 53.408 0 00-75.498 0z"/></svg>