<svg class="prefix__icon" width="200" height="200" viewBox="0 0 1024 1024" xmlns="http://www.w3.org/2000/svg" fill="rgb(226 226 226)"><path d="M512 832c-156.448 0-296.021-98.73-418.41-291.605a52.939 52.939 0 010-56.79C215.978 290.731 355.551 192 512 192c156.448 0 296.021 98.73 418.41 291.605a52.939 52.939 0 010 56.79C808.022 733.269 668.449 832 512 832zm0-576c-129.515 0-249.461 83.85-360.117 256C262.539 684.15 382.485 768 512 768c129.515 0 249.461-83.85 360.117-256C761.461 339.85 641.515 256 512 256zm0 405.333c-83.21 0-150.667-66.858-150.667-149.333S428.79 362.667 512 362.667 662.667 429.525 662.667 512 595.21 661.333 512 661.333zm0-64c47.552 0 86.101-38.208 86.101-85.333S559.552 426.667 512 426.667 425.899 464.875 425.899 512s38.549 85.333 86.101 85.333z"/></svg>