<svg width="70" height="70" xmlns="http://www.w3.org/2000/svg" fill="rgb(226 226 226)"><path d="M35 70A34.9 34.9 0 010 35 34.9 34.9 0 0135 0a34.9 34.9 0 0135 35 34.9 34.9 0 01-35 35zm.004-67.842c-18.248 0-32.846 14.598-32.846 32.846 0 18.248 14.598 32.846 32.846 32.846 18.248 0 32.846-14.598 32.846-32.846 0-18.248-14.598-32.846-32.846-32.846z"/><path d="M28.565 48.762c-.836-.557-1.393-1.393-1.393-2.508V23.966c0-1.115.557-1.95 1.393-2.508a2.53 2.53 0 012.786 0l16.717 11.145c.836.557 1.114 1.393 1.114 2.228 0 .836-.557 1.672-1.114 2.23L31.504 48.28c-.557.376-.988.76-1.546.76-.557 0-.836 0-1.393-.28z"/></svg>