<svg width="70" height="70" xmlns="http://www.w3.org/2000/svg" fill="rgb(226 226 226)"><path d="M35 70A34.9 34.9 0 010 35 34.9 34.9 0 0135 0a34.9 34.9 0 0135 35 34.9 34.9 0 01-35 35zm.045-67.9C16.798 2.1 2.2 16.698 2.2 34.945S16.798 67.79 35.045 67.79 67.89 53.192 67.89 34.945 53.292 2.1 35.045 2.1z"/><path d="M26.5 49.5c-2.1 0-3.5-1.4-3.5-3.5V25c0-2.1 1.4-3.5 3.5-3.5S30 22.9 30 25v21c0 2.1-1.4 3.5-3.5 3.5zm18 0c-2.1 0-3.5-1.4-3.5-3.5V25c0-2.1 1.4-3.5 3.5-3.5S48 22.9 48 25v21c0 2.1-1.4 3.5-3.5 3.5z"/></svg>