<svg class="prefix__icon" viewBox="0 0 1024 1024" xmlns="http://www.w3.org/2000/svg" width="200" height="200" fill="rgb(226 226 226)"><path d="M913.94 431.828c-4.877-25.783-20.692-42.456-40.947-42.456h-3.512c-54.731 0-99.248-44.516-99.248-99.263 0-17.295 8.299-37.015 8.62-37.799 10.097-22.722 2.349-50.567-18.08-64.859l-102.7-57.183-1.51-.739c-20.546-8.91-48.667-3.207-63.987 12.754-11.087 11.434-49.307 44.038-78.472 44.038-29.543 0-67.849-33.258-78.992-44.91-15.293-16.076-43.124-22.112-63.902-13.217l-106.357 58.272-1.597 1.016c-20.43 14.234-28.207 42.078-18.165 64.714.346.828 8.676 20.387 8.676 37.914 0 54.747-44.517 99.263-99.247 99.263h-4.15c-19.618 0-35.434 16.672-40.309 42.456-.363 1.814-8.59 45.446-8.59 80.43 0 34.939 8.227 78.555 8.59 80.355 4.875 25.8 20.691 42.487 40.947 42.487h3.512c54.73 0 99.247 44.517 99.247 99.247 0 17.412-8.329 37.058-8.648 37.812-10.07 22.767-2.35 50.568 18.022 64.788l100.756 56.531 1.538.697c20.837 9.171 49.015 3.192 64.25-13.464 14.074-15.208 52.208-46.783 80.21-46.783 30.355 0 69.446 35.347 80.707 47.767 10.387 11.376 26.349 18.227 42.687 18.227 7.632 0 14.857-1.511 21.474-4.354l104.472-57.574 1.538-.99c20.429-14.276 28.207-42.077 18.139-64.727-.35-.842-8.678-20.403-8.678-37.929 0-54.73 44.517-99.247 99.248-99.247h4.094c19.644 0 35.488-16.687 40.365-42.487.348-1.8 8.588-45.416 8.588-80.355 0-34.986-8.24-78.618-8.588-80.432m-50.959 80.43c0 22.606-4.498 51.655-6.56 63.786-82.097 6.732-145.737 75.335-145.737 158.303 0 23.42 7.43 45.851 11.377 56.17l-89.121 49.216c-4.383-4.584-17.326-17.645-34.94-30.762-30.935-22.926-60.595-34.636-88.106-34.636-27.279 0-56.704 11.42-87.494 34.055-17.528 12.77-30.296 25.48-34.766 30.18l-85.724-47.996c4.179-10.84 11.405-32.983 11.405-56.227 0-82.968-63.64-151.571-145.708-158.303-2.09-12.13-6.588-41.18-6.588-63.786 0-22.651 4.498-51.714 6.588-63.844 82.068-6.718 145.708-75.336 145.708-158.304 0-23.288-7.429-45.793-11.376-56.095l91.326-50.19c3.976 3.976 17.006 16.73 34.823 29.412 30.356 21.663 59.261 32.633 86.016 32.633 26.495 0 55.196-10.766 85.347-32.01 17.963-12.623 30.964-25.202 34.736-28.757l87.901 48.825c-3.975 10.244-11.405 32.676-11.405 56.182 0 82.968 63.64 151.586 145.738 158.304 2.062 12.158 6.56 41.338 6.56 63.844"/><path d="M510.216 365.633c-80.53 0-146.057 65.528-146.057 146.058 0 80.543 65.528 146.043 146.057 146.043 80.53 0 146.057-65.5 146.057-146.043 0-80.53-65.527-146.058-146.057-146.058m86.51 146.058c0 47.693-38.8 86.492-86.51 86.492-47.709 0-86.48-38.799-86.48-86.492 0-47.666 38.771-86.48 86.48-86.48 47.71.001 86.51 38.814 86.51 86.48"/></svg>