<svg width="500" height="500" xmlns="http://www.w3.org/2000/svg"><defs><filter x="0%" y="0%" width="100%" height="100%" filterUnits="objectBoundingBox" id="prefix__a"><feGaussianBlur in="SourceGraphic"/></filter><filter x="-114.3%" y="-41.6%" width="328.6%" height="183.1%" filterUnits="objectBoundingBox" id="prefix__b"><feGaussianBlur stdDeviation="48" in="SourceGraphic"/></filter></defs><g fill="none" fill-rule="evenodd"><path d="M250 1c68.76 0 131.01 27.87 176.07 72.93S499 181.24 499 250c0 68.76-27.87 131.01-72.93 176.07S318.76 499 250 499c-68.76 0-131.01-27.87-176.07-72.93S1 318.76 1 250c0-68.76 27.87-131.01 72.93-176.07S181.24 1 250 1zm.806 72.194c-48.823 0-93.025 19.79-125.02 51.785C93.79 156.975 74 201.176 74 250s19.79 93.025 51.785 125.021c31.996 31.996 76.198 51.785 125.021 51.785 48.824 0 93.026-19.79 125.021-51.785 31.996-31.996 51.786-76.197 51.786-125.021s-19.79-93.025-51.786-125.021c-31.995-31.996-76.197-51.785-125.02-51.785z" stroke="#000" stroke-width="2" fill="#232323"/><circle stroke="#000" stroke-width="15" cx="250.806" cy="250" r="171.532"/><circle stroke="#55565A" cx="250" cy="250" r="246.274"/><circle stroke="#000" cx="250" cy="250" r="243.048"/><circle stroke="#000" cx="250" cy="250" r="236.597"/><circle stroke="#000" cx="250" cy="250" r="230.145"/><circle stroke="#000" cx="250" cy="250" r="223.694"/><circle stroke="#000" cx="250" cy="250" r="217.242"/><circle stroke="#000" cx="250" cy="250" r="210.79"/><circle stroke="#000" cx="250" cy="250" r="204.339"/><circle stroke="#000" cx="250" cy="250" r="197.887"/><circle stroke="#000" cx="250" cy="250" r="191.435"/><circle stroke="#000" cx="250" cy="250" r="184.984"/><path d="M445.082 76.379L500 122.19c-15.69 19.578-26.185 34.284-31.484 44.118-16.997 31.538-23.434 61.324-23.434 81.879 0 16.971 5.772 53.849 17.36 78.863 6.006 12.966 18.525 29.552 37.558 49.758l-57.166 46.132c-21.936-25.322-36.739-46.098-44.408-62.33C382.2 326.268 374 275.86 374 251c0-27.393 7.63-72.913 27.331-113.378 7.236-14.863 21.82-35.277 43.751-61.243z" fill-opacity=".013" fill="#FFF" filter="url(#prefix__a)" transform="matrix(-1 0 0 1 874 0)"/><path d="M71.082 75.379L126 121.19c-15.69 19.578-26.185 34.284-31.484 44.118-16.997 31.538-23.434 61.324-23.434 81.879 0 16.971 5.772 53.849 17.36 78.863 6.006 12.966 18.525 29.552 37.558 49.758L68.834 421.94c-21.936-25.322-36.739-46.098-44.408-62.33C8.2 325.268 0 274.86 0 250c0-27.393 7.63-72.913 27.331-113.378 7.236-14.863 21.82-35.277 43.751-61.243z" fill-opacity=".01" fill="#FFF" filter="url(#prefix__b)"/></g></svg>