<svg class="prefix__icon" width="200" height="200" viewBox="0 0 1024 1024" xmlns="http://www.w3.org/2000/svg" fill="rgb(226 226 226)"><path d="M507.136 514.944a32.246 32.246 0 0112.032-10.315 37.365 37.365 0 0146.635 6.144l97.418 102.795a32 32 0 01-46.442 44.021l-51.446-54.272v250.016a32 32 0 11-64 0V608.757l-52.618 50.016a32 32 0 01-44.096-46.4l102.517-97.429zM512 138.667c123.019 0 228.213 85.696 259.424 204.469 92.875 1.6 167.243 79.616 167.243 175.083 0 96.469-75.915 175.114-170.134 175.114a32 32 0 010-64c58.358 0 106.134-49.493 106.134-111.114 0-61.611-47.776-111.104-106.134-111.104-5.856 0-11.626.49-17.301 1.461a32 32 0 01-37.024-26.667C698.347 279.04 612.715 202.667 512 202.667c-73.835 0-140.928 41.066-177.376 106.613a32 32 0 01-30.123 16.373c-3.168-.213-6.357-.32-9.568-.32-80.149 0-145.6 67.808-145.6 152s65.451 152 145.6 152a32 32 0 110 64c-116.021 0-209.6-96.96-209.6-216 0-116.938 90.294-212.554 203.456-215.904C338.091 185.696 421.013 138.667 512 138.667z"/></svg>