<svg class="prefix__icon" width="200" height="200" viewBox="0 0 1024 1024" xmlns="http://www.w3.org/2000/svg" fill="rgb(226 226 226)"><path d="M257.493 322.4l215.574-133.056c24.981-15.413 57.877-7.915 73.493 16.747a52.172 52.172 0 018.107 27.914v555.99c0 29.098-23.883 52.672-53.334 52.672a53.885 53.885 0 01-28.266-8L257.493 701.6H160c-41.237 0-74.667-33.013-74.667-73.739V396.14c0-40.726 33.43-73.739 74.667-73.739h97.493zm26.134 58.4a32.299 32.299 0 01-16.96 4.8H160c-5.888 0-10.667 4.715-10.667 10.539v231.733c0 5.813 4.779 10.539 10.667 10.539h106.667a32.336 32.336 0 0116.96 4.8l207.04 127.776V253.013L283.627 380.8zm517.28 448.853a32.288 32.288 0 01-45.248-.757 31.317 31.317 0 01.768-44.693c157.653-150.464 157.653-393.963 0-544.427a31.317 31.317 0 01-.768-44.683 32.288 32.288 0 0145.248-.757c183.68 175.307 183.68 460.01 0 635.317zM694.005 703.467a32.288 32.288 0 01-45.248-1.216 31.328 31.328 0 011.238-44.672c86.229-80.608 86.229-210.56 0-291.179a31.328 31.328 0 01-1.238-44.672 32.288 32.288 0 0145.248-1.216c112.886 105.547 112.886 277.419 0 382.965z"/></svg>